<svg xmlns="http://www.w3.org/2000/svg" xmlns:xlink="http://www.w3.org/1999/xlink" viewBox="0 0 455.59 384.21"><defs><style>.cls-1{isolation:isolate;}.cls-2{fill:#dbe5ed;}.cls-26,.cls-29,.cls-3,.cls-38,.cls-47{fill:none;stroke-miterlimit:10;}.cls-3{stroke:#324a82;stroke-width:3px;}.cls-29,.cls-3,.cls-47{stroke-linecap:round;}.cls-3,.cls-36{opacity:0.6;}.cls-3,.cls-36,.cls-40,.cls-41,.cls-44{mix-blend-mode:multiply;}.cls-4,.cls-5{fill:#8fb8b2;}.cls-11,.cls-5{fill-rule:evenodd;}.cls-11,.cls-6{fill:#3e6c74;}.cls-7{fill:#355b62;}.cls-8{fill:#2c4c51;}.cls-9{fill:#52909d;}.cls-10{fill:#4b818c;}.cls-12{fill:#ebc086;}.cls-13{fill:#f1ca8e;}.cls-14{fill:#c48d54;}.cls-15{fill:#427282;}.cls-16{fill:#ecc78e;}.cls-17{fill:#2e1c0c;}.cls-18{fill:#5ca1bc;}.cls-19{fill:#79bdd2;}.cls-20{fill:#e8bf85;}.cls-21{fill:#c59670;}.cls-22{fill:#eebe82;}.cls-23{fill:#d9929e;}.cls-24,.cls-27{opacity:0.39;}.cls-24{fill:url(#linear-gradient);}.cls-25{fill:#412308;}.cls-26{stroke:#654431;stroke-width:0.78px;}.cls-27{fill:url(#linear-gradient-2);}.cls-28{fill:#926053;}.cls-29{stroke:#52909d;}.cls-30{fill:#5a5a5a;}.cls-31{fill:#666665;}.cls-32{fill:#434442;}.cls-33{fill:#beebfd;}.cls-34{opacity:0.41;}.cls-35{fill:#fffef1;opacity:0.52;}.cls-36{fill:#324a82;}.cls-37,.cls-48,.cls-49{fill:#fff;}.cls-38{stroke:#fff;stroke-width:0.84px;}.cls-39{fill:#e9b93c;}.cls-40,.cls-41,.cls-43,.cls-44{fill:#daa639;}.cls-40{opacity:0.24;}.cls-41{opacity:0.58;}.cls-42{fill:#efc63d;}.cls-44{opacity:0.27;}.cls-45{fill:#f7e58a;}.cls-46{fill:#c30150;}.cls-47{stroke:#c30150;stroke-width:2px;}.cls-48{font-size:16.6px;}.cls-48,.cls-49{font-family:Poppins-Bold, Poppins Bold;font-weight:700;}.cls-49{font-size:10.74px;}.cls-50{letter-spacing:0.01em;}.cls-51{letter-spacing:-0.02em;}.cls-52{letter-spacing:0em;}</style><linearGradient id="linear-gradient" x1="-10999.93" y1="-489.01" x2="-10998.89" y2="-482.42" gradientTransform="matrix(-0.99, -0.13, -0.13, 0.99, -10846.42, -820.48)" gradientUnits="userSpaceOnUse"><stop offset="0" stop-color="#b88f6c"/><stop offset="1" stop-color="#b88f6c" stop-opacity="0"/></linearGradient><linearGradient id="linear-gradient-2" x1="-2213.63" y1="663" x2="-2212.6" y2="669.59" gradientTransform="translate(2217.01 -820.48) rotate(-7.47)" xlink:href="#linear-gradient"/></defs><g class="cls-1"><g id="Layer_2" data-name="Layer 2"><g id="OBJECTS"><ellipse class="cls-2" cx="289.8" cy="365.3" rx="90.99" ry="4.62"/><line class="cls-3" x1="318.33" y1="49.76" x2="305.53" y2="83.78"/><line class="cls-3" x1="292.46" y1="83.78" x2="291.95" y2="65.11"/><line class="cls-3" x1="279.69" y1="83.78" x2="261.02" y2="50.01"/><path class="cls-4" d="M225.31,260.77s-.86.68-2.33,1.89-3.55,2.95-6,5.11c-1.22,1.08-2.54,2.26-3.91,3.53s-2.8,2.61-4.27,4-3,2.89-4.46,4.41-3,3.1-4.47,4.68-2.93,3.21-4.32,4.82-2.75,3.23-4,4.82c-.64.79-1.26,1.57-1.85,2.35s-1.19,1.54-1.73,2.29c-1.11,1.5-2.12,2.95-3,4.29l-1.29,1.95-1.11,1.78c-.36.56-.67,1.1-.95,1.59l-.79,1.36c-.46.83-.81,1.49-1.05,1.93l-.37.69.38-.68c.25-.44.61-1.09,1.09-1.91l.81-1.34c.3-.49.62-1,1-1.57l1.15-1.76,1.32-1.92c.94-1.33,2-2.75,3.11-4.22.55-.74,1.15-1.49,1.76-2.25s1.25-1.53,1.9-2.31c1.29-1.56,2.67-3.14,4.09-4.72s2.91-3.17,4.4-4.73,3-3.09,4.56-4.57,3-2.93,4.52-4.32,2.94-2.69,4.33-3.92,2.72-2.38,4-3.43c2.46-2.11,4.57-3.8,6-5s2.34-1.82,2.34-1.82Z"/><path class="cls-5" d="M183.46,305.27c-5.21,5.09-9.52,9.91-6.16,11.39C180.23,318,181.61,312.55,183.46,305.27Z"/><path class="cls-5" d="M188.39,298c-.89,7.24-1.24,13.69,2.3,12.75C193.79,310,191.49,304.88,188.39,298Z"/><path class="cls-5" d="M188.27,298.58c-6.75,2.75-12.89,4.78-12.91,1.11C175.35,296.49,180.85,297.37,188.27,298.58Z"/><path class="cls-5" d="M198.55,286.27c-9.09.41-17.11,1.32-15.21,5.49C185,295.4,190.78,291.51,198.55,286.27Z"/><path class="cls-5" d="M199,286c-2.53,8.75-4.24,16.64.31,16.18C203.25,301.81,201.42,295.1,199,286Z"/><path class="cls-5" d="M205.51,279c-11-4.9-21-8.56-21.23-2.51C184.09,281.79,193.21,280.61,205.51,279Z"/><path class="cls-5" d="M207.94,277.14c-3.35,11.56-5.61,22,.41,21.37C213.62,298,211.21,289.1,207.94,277.14Z"/><path class="cls-5" d="M216.17,269c2.12,14.34,4.86,26.9,11.15,23.22C232.83,289,225.74,280.47,216.17,269Z"/><path class="cls-5" d="M213.76,271.13c-15-.79-28.14-2.39-25-9.23C191.58,255.93,201,262.4,213.76,271.13Z"/><path class="cls-6" d="M375.82,176.9c10,5.58,20.11,14.78,24.1,22.59,3.11,6.08,1.85,11.19-3.36,12.58-5.43,1.45-9.14-2.19-10.54-6-1.33-3.59-2.56-9.07-4.63-15.12-1.67-4.88-3.63-9.44-7.41-12.87-3.86-2.34,1.84-1.2,1.84-1.2"/><path class="cls-7" d="M375.82,176.9a75.62,75.62,0,0,1,12.75,9c-1.2,1-1.19,3.87.74,8.21-3.58-3.49-4.67,5-3.11,12.36-.06-.14-.13-.29-.18-.43-1.33-3.59-2.56-9.07-4.63-15.12-1.67-4.88-3.63-9.44-7.41-12.87C370.12,175.76,375.82,176.9,375.82,176.9Z"/><path class="cls-8" d="M392.77,201q-1.42-3.12-3.09-6.11c-1.11-2-2.28-4-3.56-5.83a60.18,60.18,0,0,0-4.09-5.46l-1.11-1.29c-.38-.43-.78-.83-1.17-1.24-.75-.87-1.64-1.59-2.44-2.41a35.93,35.93,0,0,1,5.08,4.63,47.41,47.41,0,0,1,4.24,5.43,59.76,59.76,0,0,1,3.47,5.94A47.54,47.54,0,0,1,392.77,201Z"/><path class="cls-6" d="M347.45,133.45c-.6-23.79,5.21-51.53,15-66.9,7.58-11.95,18-15.08,26-7.24,8.31,8.18,5.72,18.65.42,25.14-5,6.15-13.51,14.12-22.14,24.21-6.95,8.13-13,16.43-15.19,26.81-.11,9.36-4.07-2-4.07-2"/><path class="cls-7" d="M347.45,133.45a155.61,155.61,0,0,1,2.73-32.33c3.11,1,8.17-2,13.88-10-2.46,10.09,13.8,3.11,25.38-7.47-.2.27-.39.53-.59.78-5,6.15-13.51,14.12-22.14,24.21-6.95,8.13-13,16.43-15.19,26.81C351.41,144.83,347.45,133.45,347.45,133.45Z"/><path class="cls-8" d="M372.66,77.75c-1.36,2-2.7,3.9-4,5.91s-2.52,4-3.72,6c-2.37,4.09-4.62,8.24-6.65,12.5a131.78,131.78,0,0,0-5.45,13.06l-1.15,3.35c-.36,1.13-.64,2.27-1,3.41-.76,2.25-1.12,4.59-1.74,6.89A75.18,75.18,0,0,1,352,115a96.11,96.11,0,0,1,5.23-13.3,115.11,115.11,0,0,1,7-12.47A98.06,98.06,0,0,1,372.66,77.75Z"/><path class="cls-9" d="M358.28,171.82c17.83-4.91,39.84-5.73,53.26-1.26C422,174,426.3,181.33,421.88,188.82c-4.61,7.81-13,7.81-18.88,5-5.58-2.63-13.19-7.54-22.41-12.16-7.44-3.72-14.84-6.75-23.08-6.42-7.07,1.67.77-3.46.77-3.46"/><path class="cls-10" d="M358.28,171.82a121.19,121.19,0,0,1,24.89-4c-.2,2.54,3,5.79,10.13,8.6-8.07,0,.25,11,10.4,17.74l-.7-.3c-5.58-2.63-13.19-7.54-22.41-12.16-7.44-3.72-14.84-6.75-23.08-6.42C350.44,177,358.28,171.82,358.28,171.82Z"/><path class="cls-6" d="M405,180.39c-1.73-.66-3.45-1.3-5.2-1.87s-3.5-1.15-5.26-1.67c-3.53-1-7.09-1.94-10.68-2.67A102.61,102.61,0,0,0,373,172.52l-2.75-.24c-.91-.06-1.83-.06-2.75-.09-1.84-.15-3.67,0-5.52,0a58.59,58.59,0,0,1,11.08-.42,73.12,73.12,0,0,1,11,1.45,90.15,90.15,0,0,1,10.71,2.92A75.1,75.1,0,0,1,405,180.39Z"/><path class="cls-9" d="M358.4,262C373.89,272.06,389.08,288,394.62,301c4.31,10.12,1.7,18.2-6.83,19.85-8.91,1.72-14.46-4.56-16.28-10.82-1.73-5.92-3.09-14.87-5.74-24.84-2.13-8-4.77-15.59-10.46-21.54-5.94-4.19,3.09-1.72,3.09-1.72"/><path class="cls-10" d="M358.4,262a121.88,121.88,0,0,1,19.49,16c-2.05,1.53-2.35,6.09.26,13.28-5.37-6-8.07,7.46-6.4,19.54-.09-.24-.17-.49-.24-.73-1.73-5.92-3.09-14.87-5.74-24.84-2.13-8-4.77-15.59-10.46-21.54C349.37,259.48,358.4,262,358.4,262Z"/><path class="cls-6" d="M382.94,302.65c-.65-1.73-1.31-3.45-2.05-5.14s-1.45-3.38-2.23-5c-1.57-3.32-3.24-6.59-5.07-9.77a99.74,99.74,0,0,0-6-9.25L366,271.24c-.56-.72-1.17-1.41-1.74-2.13-1.11-1.47-2.45-2.73-3.65-4.14a58.65,58.65,0,0,1,7.65,8,74.25,74.25,0,0,1,6.21,9.21,90.12,90.12,0,0,1,4.9,10A75,75,0,0,1,382.94,302.65Z"/><path class="cls-4" d="M362.53,161.89s1-.46,2.73-1.22,4.24-1.83,7.27-3c1.52-.6,3.16-1.24,4.91-1.89s3.6-1.32,5.52-2,3.92-1.33,6-2,4.11-1.27,6.19-1.88,4.19-1.15,6.26-1.67,4.12-1,6.11-1.4c1-.21,2-.42,2.94-.59s1.9-.36,2.82-.5c1.84-.32,3.59-.56,5.2-.77l2.32-.26,2.09-.19c.66-.06,1.28-.1,1.85-.13l1.57-.09,2.2,0,.77,0-.77,0-2.2.1-1.57.12c-.56,0-1.18.09-1.84.17l-2.09.22-2.3.31c-1.61.24-3.35.51-5.17.86-.92.16-1.85.36-2.81.56s-1.93.41-2.92.64c-2,.45-4,1-6.06,1.52s-4.14,1.16-6.21,1.78-4.12,1.3-6.14,2-4,1.39-5.89,2.09-3.73,1.4-5.46,2.08-3.36,1.35-4.85,2c-3,1.25-5.46,2.36-7.17,3.15s-2.68,1.26-2.68,1.26Z"/><path class="cls-5" d="M421.14,144.71c6.91-2.34,13.15-4,12.95-.34C433.92,147.57,428.48,146.36,421.14,144.71Z"/><path class="cls-5" d="M412.46,145.83c6.86,2.48,12.77,5.09,10.33,7.82C420.65,156,417.16,151.7,412.46,145.83Z"/><path class="cls-5" d="M413,146c5.52-4.77,10.1-9.32,6.84-11C417,133.5,415.29,138.81,413,146Z"/><path class="cls-5" d="M397.37,149.57c4.48-7.92,8.93-14.66,11.78-11.08C411.65,141.62,405.57,145,397.37,149.57Z"/><path class="cls-5" d="M397,149.83c8.95,1.69,16.75,3.74,14.28,7.59C409.11,160.79,404,156.12,397,149.83Z"/><path class="cls-5" d="M387.75,152.49c.61-12,1.88-22.6,7.37-20.06C399.92,134.65,394.74,142.25,387.75,152.49Z"/><path class="cls-5" d="M385,153.81c11.82,2.25,22.14,4.95,18.87,10C401,168.31,394.17,162.14,385,153.81Z"/><path class="cls-5" d="M374,157.46c11.83,8.38,21.79,16.51,15.66,20.45C384.28,181.37,379.9,171.19,374,157.46Z"/><path class="cls-5" d="M377,156.29c6.07-13.7,10.6-26.18,3.07-26.44C373.47,129.62,375,141,377,156.29Z"/><path class="cls-4" d="M354.4,104.7s-.21-.76-.54-2.1-.77-3.26-1.25-5.57c-.24-1.16-.49-2.41-.74-3.74s-.5-2.73-.74-4.19-.47-3-.67-4.5-.4-3.1-.58-4.66-.3-3.13-.41-4.68-.2-3.06-.25-4.54c0-.73-.05-1.46-.06-2.17s0-1.4,0-2.08c0-1.35.05-2.63.1-3.8,0-.59.07-1.16.1-1.69s.09-1,.13-1.52.08-.93.13-1.34.09-.79.13-1.13c.1-.68.18-1.21.24-1.58l.08-.56-.07.56c-.05.37-.13.9-.2,1.59,0,.34-.07.72-.11,1.13s-.09.86-.11,1.33-.07,1-.1,1.52,0,1.1-.07,1.69c0,1.18,0,2.45,0,3.8,0,.68,0,1.37.05,2.08s.06,1.43.1,2.16c.07,1.47.19,3,.33,4.52s.31,3.1.51,4.65.41,3.11.66,4.64.49,3,.75,4.47.54,2.84.82,4.16.54,2.56.81,3.71c.52,2.29,1,4.19,1.35,5.51s.57,2.07.57,2.07Z"/><path class="cls-5" d="M349.39,60.7c-.82-5.22-1.24-9.89,1.36-9.29C353,51.93,351.47,55.66,349.39,60.7Z"/><path class="cls-5" d="M349.11,67c2.62-4.59,5.22-8.49,6.87-6.41C357.42,62.45,353.88,64.41,349.11,67Z"/><path class="cls-5" d="M349.28,66.67c-2.73-4.53-5.41-8.37-7-6.25C340.86,62.28,344.44,64.15,349.28,66.67Z"/><path class="cls-5" d="M349.91,78.29c-5.1-4.19-9.36-8.2-6.45-9.8C346,67.1,347.67,71.86,349.91,78.29Z"/><path class="cls-5" d="M350.05,78.59c2.32-6.18,4.75-11.51,7.19-9.26C359.39,71.29,355.41,74.4,350.05,78.59Z"/><path class="cls-5" d="M350.81,85.52c-8.51-1.92-15.92-4.14-13.42-7.75C339.57,74.61,344.36,79.26,350.81,85.52Z"/><path class="cls-5" d="M351.41,87.66c3.07-8.17,6.27-15.2,9.51-12.24C363.75,78,358.49,82.13,351.41,87.66Z"/><path class="cls-5" d="M352.65,96c7.46-7.42,14.49-13.53,16.56-8.66C371,91.57,363.19,93.45,352.65,96Z"/><path class="cls-5" d="M352.19,93.68c-9-6-17.39-10.82-18.51-5.47C332.7,92.89,341,93.23,352.19,93.68Z"/><path class="cls-4" d="M348.52,252.23s1-.46,2.73-1.22,4.25-1.82,7.27-3c1.52-.6,3.16-1.24,4.91-1.89s3.6-1.32,5.52-2,3.92-1.34,6-2,4.11-1.27,6.2-1.87,4.18-1.16,6.25-1.68,4.12-1,6.11-1.4c1-.21,2-.42,2.94-.59s1.9-.36,2.82-.5c1.84-.32,3.59-.56,5.2-.76l2.32-.27,2.09-.19c.66-.06,1.28-.09,1.85-.12l1.57-.09c.94,0,1.69,0,2.2-.06l.78,0-.78,0-2.2.1-1.56.12c-.57,0-1.19.09-1.84.17l-2.09.22-2.31.31c-1.61.24-3.35.51-5.17.86-.92.16-1.85.36-2.81.56s-1.93.42-2.92.64c-2,.45-4,1-6.06,1.52s-4.14,1.16-6.2,1.79-4.13,1.29-6.15,2-4,1.39-5.89,2.09-3.73,1.4-5.46,2.08-3.35,1.35-4.85,2c-3,1.25-5.46,2.35-7.17,3.14s-2.68,1.26-2.68,1.26Z"/><path class="cls-5" d="M407.14,235.06c6.9-2.35,13.14-4,12.94-.35C419.91,237.91,414.47,236.7,407.14,235.06Z"/><path class="cls-5" d="M398.46,236.18c6.85,2.48,12.76,5.08,10.32,7.82C406.64,246.39,403.16,242,398.46,236.18Z"/><path class="cls-5" d="M399,236.31c5.52-4.77,10.1-9.32,6.84-11C403,223.84,401.28,229.15,399,236.31Z"/><path class="cls-5" d="M383.36,239.91c4.49-7.92,8.93-14.66,11.79-11.08C397.64,232,391.56,235.35,383.36,239.91Z"/><path class="cls-5" d="M383,240.17c8.95,1.7,16.76,3.74,14.28,7.6C395.1,251.14,389.94,246.47,383,240.17Z"/><path class="cls-5" d="M373.74,242.83c.61-12,1.88-22.6,7.37-20.06C385.92,225,380.73,232.59,373.74,242.83Z"/><path class="cls-5" d="M371,244.15c11.83,2.25,22.14,4.95,18.87,10C387,258.65,380.16,252.48,371,244.15Z"/><path class="cls-5" d="M360,247.8c11.83,8.38,21.79,16.51,15.66,20.46C370.28,271.71,365.89,261.53,360,247.8Z"/><path class="cls-5" d="M363,246.63c6.07-13.7,10.6-26.18,3.07-26.44C359.47,220,361,231.32,363,246.63Z"/><path class="cls-6" d="M369.45,153.38s0-.61.15-1.68.25-2.6.49-4.43c.12-.91.26-1.9.41-2.94s.33-2.14.53-3.28.41-2.3.65-3.48.5-2.39.77-3.58.57-2.39.89-3.56.63-2.31,1-3.41c.17-.55.34-1.09.52-1.61s.34-1,.52-1.54c.35-1,.71-1.92,1-2.77.17-.43.34-.84.5-1.22l.48-1.09c.15-.35.3-.66.44-1l.39-.8c.24-.48.44-.85.57-1.11l.21-.39-.2.4c-.13.26-.32.63-.55,1.11l-.37.81q-.21.44-.42,1c-.15.34-.3.71-.47,1.09s-.31.8-.47,1.23c-.33.86-.67,1.79-1,2.79-.17.5-.33,1-.5,1.54s-.32,1.07-.48,1.62c-.32,1.1-.62,2.25-.91,3.42s-.55,2.36-.81,3.56-.49,2.39-.7,3.58-.4,2.35-.58,3.49-.33,2.23-.46,3.27-.26,2-.35,2.94c-.21,1.82-.33,3.34-.41,4.41s-.11,1.67-.11,1.67Z"/><path class="cls-11" d="M377,119.68c.73-4.06,1.62-7.6,3.37-6.5C381.91,114.14,379.82,116.5,377,119.68Z"/><path class="cls-11" d="M375.18,124.28c3.1-2.71,6-4.92,6.69-3C382.47,123,379.36,123.56,375.18,124.28Z"/><path class="cls-11" d="M375.39,124.05c-.85-4-1.85-7.55-3.57-6.39C370.31,118.67,372.48,121,375.39,124.05Z"/><path class="cls-11" d="M372.89,132.77c-2.69-4.39-4.8-8.43-2.25-8.86C372.87,123.53,372.88,127.47,372.89,132.77Z"/><path class="cls-11" d="M372.92,133c3.29-4,6.43-7.27,7.66-5C381.66,130,377.94,131.31,372.92,133Z"/><path class="cls-11" d="M371.71,138.33c-5.78-3.59-10.68-7.12-7.91-9.14C366.21,127.42,368.55,132.07,371.71,138.33Z"/><path class="cls-11" d="M371.6,140.06c4.35-5.23,8.51-9.6,10.13-6.59C383.16,136.11,378.24,137.79,371.6,140.06Z"/><path class="cls-11" d="M370.4,146.5c7.38-3.56,14.13-6.26,14.4-2.15C385.05,148,378.81,147.34,370.4,146.5Z"/><path class="cls-11" d="M370.64,144.69c-5.12-6.75-10.05-12.41-12.24-8.75C356.48,139.14,362.51,141.5,370.64,144.69Z"/><path class="cls-6" d="M366.85,257.15s.32.53.85,1.47,1.26,2.28,2.11,3.92c.42.81.87,1.7,1.33,2.65s.95,1.95,1.43,3,1,2.12,1.45,3.23,1,2.25,1.4,3.39.89,2.28,1.3,3.42.79,2.26,1.13,3.36c.17.55.35,1.09.5,1.62s.31,1.05.44,1.56c.28,1,.52,2,.72,2.88.1.45.19.88.28,1.29s.15.8.22,1.17.13.71.18,1,.1.61.14.88c.07.53.12,1,.16,1.23l.05.44-.06-.44c0-.28-.1-.7-.18-1.23-.05-.26-.1-.55-.16-.87s-.11-.66-.19-1L379.7,289c-.09-.41-.2-.83-.3-1.28-.23-.89-.48-1.85-.78-2.86-.14-.51-.3-1-.47-1.55s-.34-1.06-.53-1.6c-.36-1.09-.76-2.21-1.19-3.33s-.89-2.26-1.36-3.39-1-2.25-1.46-3.34-1-2.17-1.5-3.2-1-2-1.49-3-.94-1.81-1.38-2.61c-.87-1.62-1.63-2.94-2.17-3.86s-.86-1.44-.86-1.44Z"/><path class="cls-11" d="M379.82,289.16c1.71,3.75,3,7.17.92,7.26C378.93,296.51,379.31,293.38,379.82,289.16Z"/><path class="cls-11" d="M378.7,284.34c-1,4-2.14,7.47-3.82,6.25C373.42,289.52,375.67,287.31,378.7,284.34Z"/><path class="cls-11" d="M378.66,284.65c3,2.83,5.81,5.16,6.57,3.23C385.9,286.19,382.81,285.53,378.66,284.65Z"/><path class="cls-11" d="M375.75,276.06c4.71,2.07,8.75,4.19,6.9,6C381,283.64,378.78,280.41,375.75,276.06Z"/><path class="cls-11" d="M375.58,275.86c-.45,5.13-1.16,9.63-3.47,8.46C370.1,283.29,372.43,280.13,375.58,275.86Z"/><path class="cls-11" d="M373.56,270.81c6.8-.34,12.83-.22,11.71,3C384.29,276.65,379.72,274.16,373.56,270.81Z"/><path class="cls-11" d="M372.66,269.32c-.59,6.78-1.53,12.74-4.58,11.19C365.41,279.15,368.5,275,372.66,269.32Z"/><path class="cls-11" d="M370,263.34c-4.05,7.14-8.06,13.19-10.62,10C357.12,270.49,362.6,267.44,370,263.34Z"/><path class="cls-11" d="M370.82,265c8.05,2.64,15.33,4.49,15.05.24C385.63,261.49,379.32,263,370.82,265Z"/><path class="cls-9" d="M364.52,164.46c3.58-18.14,12.69-38.19,22.69-48.2,7.78-7.78,16.24-8.38,21-1.08,4.92,7.61,1.18,15.11-3.94,19.14-4.85,3.81-12.64,8.42-20.89,14.61-6.65,5-12.68,10.25-16.07,17.76-1.67,7.08-2.75-2.23-2.75-2.23"/><path class="cls-10" d="M364.52,164.46a121.14,121.14,0,0,1,7.56-24.05c2.18,1.32,6.52-.1,12.22-5.22-3.58,7.24,9.94,4.7,20.51-1.36-.19.17-.38.34-.58.49-4.85,3.81-12.64,8.42-20.89,14.61-6.65,5-12.68,10.25-16.07,17.76C365.6,173.77,364.52,164.46,364.52,164.46Z"/><path class="cls-6" d="M393.09,126.49c-1.36,1.25-2.71,2.5-4,3.82s-2.59,2.61-3.85,3.95c-2.49,2.7-4.9,5.47-7.16,8.36a102.39,102.39,0,0,0-6.35,9L370.3,154c-.47.79-.88,1.61-1.32,2.42-1,1.57-1.63,3.29-2.49,4.93a58.72,58.72,0,0,1,4.58-10.09,74.69,74.69,0,0,1,6.22-9.21,89.42,89.42,0,0,1,7.41-8.27A75,75,0,0,1,393.09,126.49Z"/><path class="cls-9" d="M348.22,103.82c-10.68-6.28-21.35-16.47-25.47-25-3.21-6.64-1.71-12.13,3.95-13.5,5.9-1.43,9.81,2.59,11.23,6.72,1.34,3.91,2.53,9.86,4.62,16.45,1.68,5.3,3.68,10.28,7.68,14.09,4.11,2.61-2,1.24-2,1.24"/><path class="cls-10" d="M348.22,103.82a80.73,80.73,0,0,1-13.55-10.1c1.32-1.09,1.38-4.15-.59-8.88,3.78,3.86,5.16-5.25,3.67-13.27.06.16.13.31.18.47,1.34,3.91,2.53,9.86,4.62,16.45,1.68,5.3,3.68,10.28,7.68,14.09C354.34,105.19,348.22,103.82,348.22,103.82Z"/><path class="cls-6" d="M330.52,77.36Q332,80.76,333.7,84c1.15,2.17,2.36,4.32,3.7,6.38a63.27,63.27,0,0,0,4.27,6l1.17,1.42c.4.47.83.91,1.24,1.37.79,1,1.72,1.76,2.57,2.66a39.39,39.39,0,0,1-5.37-5.12,52.48,52.48,0,0,1-4.44-6,65.54,65.54,0,0,1-3.6-6.51A49.8,49.8,0,0,1,330.52,77.36Z"/><path class="cls-6" d="M358.91,252.19c18.23-3.1,40.21-1.71,53.12,4.08,10,4.5,13.61,12.2,8.46,19.2-5.37,7.31-13.7,6.48-19.29,3.12-5.29-3.17-12.36-8.82-21.08-14.33-7-4.45-14.09-8.21-22.31-8.71-7.21,1,1.1-3.36,1.1-3.36"/><path class="cls-7" d="M358.91,252.19a121.58,121.58,0,0,1,25.17-1.49c-.45,2.51,2.42,6.07,9.22,9.57-8-.77-.85,11,8.57,18.69l-.67-.37c-5.29-3.17-12.36-8.82-21.08-14.33-7-4.45-14.09-8.21-22.31-8.71C350.6,256.51,358.91,252.19,358.91,252.19Z"/><path class="cls-8" d="M404.56,265.4c-1.65-.83-3.3-1.65-5-2.38s-3.36-1.5-5.06-2.19c-3.41-1.38-6.86-2.64-10.36-3.73a100.2,100.2,0,0,0-10.65-2.74l-2.71-.51c-.9-.15-1.82-.24-2.72-.37-1.82-.33-3.66-.35-5.5-.57a58.51,58.51,0,0,1,11.06.69,73,73,0,0,1,10.82,2.55,88.83,88.83,0,0,1,10.36,4A74.52,74.52,0,0,1,404.56,265.4Z"/><path class="cls-11" d="M422.34,125.44c5.39-4.16,10.4-7.51,11.33-4.21C434.48,124.11,429.31,124.68,422.34,125.44Z"/><path class="cls-11" d="M425.06,165.25c10.2-4,19.46-6.87,19.4-1.37C444.4,168.7,436.16,167.23,425.06,165.25Z"/><path class="cls-5" d="M426.68,248.53c9.49-5.45,18.21-9.7,19-4.25C446.33,249.05,438,248.83,426.68,248.53Z"/><path class="cls-5" d="M427.65,251.7c7.49,1.88,14,4,11.71,7.15C437.36,261.59,433.22,257.38,427.65,251.7Z"/><path class="cls-11" d="M426.28,169.48c5,1.75,9.38,3.6,7.62,5.62C432.36,176.87,429.77,173.73,426.28,169.48Z"/><path class="cls-11" d="M418.31,123.48c1.25-3.9,2.58-7.28,4.17-6C423.86,118.66,421.5,120.71,418.31,123.48Z"/><path class="cls-6" d="M211.12,176.9c-10,5.58-20.11,14.78-24.1,22.59-3.11,6.08-1.85,11.19,3.36,12.58,5.44,1.45,9.14-2.19,10.54-6,1.33-3.59,2.56-9.07,4.63-15.12,1.67-4.88,3.63-9.44,7.41-12.87,3.86-2.34-1.84-1.2-1.84-1.2"/><path class="cls-7" d="M211.12,176.9a76,76,0,0,0-12.75,9c1.2,1,1.19,3.87-.74,8.21,3.59-3.49,4.67,5,3.11,12.36a3.93,3.93,0,0,0,.18-.43c1.33-3.59,2.56-9.07,4.63-15.12,1.67-4.88,3.63-9.44,7.41-12.87C216.82,175.76,211.12,176.9,211.12,176.9Z"/><path class="cls-8" d="M194.18,201a47.48,47.48,0,0,1,2.66-6.34,61.78,61.78,0,0,1,3.47-5.94,48.55,48.55,0,0,1,4.24-5.43,36.49,36.49,0,0,1,5.08-4.63c-.8.82-1.68,1.54-2.43,2.41-.39.41-.8.81-1.18,1.24l-1.11,1.29a58.26,58.26,0,0,0-4.08,5.46c-1.29,1.88-2.46,3.84-3.57,5.83S195.12,198.93,194.18,201Z"/><path class="cls-6" d="M218,252.89c-9.59-6.29-22.42-11-31.19-10.9-6.82.06-10.76,3.54-9.58,8.8,1.23,5.49,6.17,7.09,10.18,6.58,3.79-.49,9.22-1.94,15.54-2.9,5.09-.78,10-1.16,14.84.61,3.86,2.33.21-2.19.21-2.19"/><path class="cls-7" d="M218,252.89A75.44,75.44,0,0,0,204,245.78c-.36,1.54-2.88,2.85-7.62,3.15,4.76,1.56-2.24,6.43-9.51,8.48l.47,0c3.79-.49,9.22-1.94,15.54-2.9,5.09-.78,10-1.16,14.84.61C221.62,257.41,218,252.89,218,252.89Z"/><path class="cls-8" d="M188.75,249a47.6,47.6,0,0,1,6.85-.58,60.83,60.83,0,0,1,6.88.33,49,49,0,0,1,6.78,1.24,36.89,36.89,0,0,1,6.45,2.36c-1.1-.33-2.15-.78-3.26-1-.55-.16-1.09-.33-1.64-.47l-1.67-.39a58.59,58.59,0,0,0-6.73-1.09c-2.26-.27-4.53-.4-6.81-.46S191,248.91,188.75,249Z"/><path class="cls-9" d="M228.66,171.82c-17.82-4.91-39.83-5.73-53.25-1.26C165,174,160.64,181.33,165.06,188.82c4.61,7.81,13,7.81,18.89,5,5.57-2.63,13.18-7.54,22.41-12.16,7.43-3.72,14.83-6.75,23.07-6.42,7.07,1.67-.77-3.46-.77-3.46"/><path class="cls-10" d="M228.66,171.82a121.19,121.19,0,0,0-24.89-4c.2,2.54-3,5.79-10.13,8.6,8.07,0-.25,11-10.39,17.74l.7-.3c5.57-2.63,13.18-7.54,22.41-12.16,7.43-3.72,14.83-6.75,23.07-6.42C236.5,177,228.66,171.82,228.66,171.82Z"/><path class="cls-6" d="M181.92,180.39a75.63,75.63,0,0,1,10.23-4.27,90.15,90.15,0,0,1,10.71-2.92,73.08,73.08,0,0,1,11-1.45,58.49,58.49,0,0,1,11.07.42c-1.85,0-3.68-.13-5.52,0-.92,0-1.84,0-2.75.09l-2.75.24a102.61,102.61,0,0,0-10.87,1.66c-3.59.73-7.15,1.64-10.68,2.67-1.76.52-3.51,1.07-5.25,1.67S183.65,179.73,181.92,180.39Z"/><path class="cls-9" d="M233.59,253.13c-18.47-.79-40.11,3.34-52.19,10.7-9.39,5.72-12,13.81-6,20.12,6.24,6.57,14.41,4.7,19.53.67,4.84-3.81,11.16-10.3,19.11-16.86,6.41-5.29,12.95-9.91,21.05-11.44,7.27,0-1.52-3.19-1.52-3.19"/><path class="cls-10" d="M233.59,253.13a121,121,0,0,0-25.16,1.68c.77,2.43-1.63,6.31-7.94,10.65,7.87-1.78,2.22,10.76-6.16,19.61.21-.15.42-.29.62-.45,4.84-3.81,11.16-10.3,19.11-16.86,6.41-5.29,12.95-9.91,21.05-11.44C242.38,256.37,233.59,253.13,233.59,253.13Z"/><path class="cls-6" d="M190,272a75.33,75.33,0,0,1,9-6.45,90.06,90.06,0,0,1,9.78-5.25,74.89,74.89,0,0,1,10.41-3.88,58,58,0,0,1,10.89-2.07c-1.79.45-3.62.69-5.38,1.25-.88.24-1.78.45-2.66.71l-2.62.85a101.92,101.92,0,0,0-10.22,4.05c-3.34,1.52-6.6,3.21-9.81,5-1.6.9-3.19,1.83-4.75,2.8S191.49,270.92,190,272Z"/><path class="cls-4" d="M224.41,161.89s-1-.46-2.73-1.22-4.24-1.83-7.27-3c-1.52-.6-3.16-1.24-4.91-1.89s-3.6-1.32-5.52-2-3.92-1.33-5.95-2-4.12-1.27-6.2-1.88-4.18-1.15-6.26-1.67-4.12-1-6.11-1.4c-1-.21-2-.42-2.94-.59s-1.9-.36-2.82-.5c-1.84-.32-3.58-.56-5.2-.77l-2.31-.26-2.1-.19c-.66-.06-1.28-.1-1.85-.13l-1.56-.09-2.2,0-.78,0,.78,0,2.19.1,1.57.12c.57,0,1.18.09,1.84.17l2.09.22,2.31.31c1.6.24,3.34.51,5.17.86.91.16,1.85.36,2.8.56s1.93.41,2.92.64c2,.45,4,1,6.07,1.52s4.13,1.16,6.2,1.78,4.12,1.3,6.14,2,4,1.39,5.89,2.09,3.74,1.4,5.46,2.08,3.36,1.35,4.85,2c3,1.25,5.46,2.36,7.18,3.15s2.68,1.26,2.68,1.26Z"/><path class="cls-5" d="M165.8,144.71c-6.9-2.34-13.15-4-13-.34C153,147.57,158.47,146.36,165.8,144.71Z"/><path class="cls-5" d="M174.48,145.83c-6.86,2.48-12.77,5.09-10.33,7.82C166.29,156,169.78,151.7,174.48,145.83Z"/><path class="cls-5" d="M173.94,146c-5.51-4.77-10.1-9.32-6.84-11C170,133.5,171.65,138.81,173.94,146Z"/><path class="cls-5" d="M189.57,149.57c-4.48-7.92-8.93-14.66-11.78-11.08C175.29,141.62,181.37,145,189.57,149.57Z"/><path class="cls-5" d="M190,149.83c-8.95,1.69-16.75,3.74-14.28,7.59C177.83,160.79,183,156.12,190,149.83Z"/><path class="cls-5" d="M199.19,152.49c-.61-12-1.88-22.6-7.37-20.06C187,134.65,192.2,142.25,199.19,152.49Z"/><path class="cls-5" d="M202,153.81c-11.82,2.25-22.14,4.95-18.87,10C186,168.31,192.77,162.14,202,153.81Z"/><path class="cls-5" d="M213,157.46c-11.83,8.38-21.79,16.51-15.65,20.45C202.66,181.37,207.05,171.19,213,157.46Z"/><path class="cls-5" d="M210,156.29c-6.07-13.7-10.6-26.18-3.07-26.44C213.47,129.62,212,141,210,156.29Z"/><path class="cls-6" d="M217.49,153.38s0-.61-.14-1.68-.26-2.6-.5-4.43c-.12-.91-.25-1.9-.41-2.94s-.33-2.14-.53-3.28-.41-2.3-.65-3.48-.5-2.39-.77-3.58-.57-2.39-.88-3.56-.64-2.31-1-3.41c-.17-.55-.34-1.09-.52-1.61s-.34-1-.52-1.54c-.35-1-.7-1.92-1-2.77l-.51-1.22-.48-1.09c-.15-.35-.3-.66-.44-1l-.39-.8c-.24-.48-.44-.85-.57-1.11l-.2-.39s.06.14.19.4.32.63.55,1.11c.12.25.24.52.37.81s.29.61.43,1l.46,1.09.48,1.23c.32.86.66,1.79,1,2.79.18.5.33,1,.5,1.54s.32,1.07.48,1.62c.32,1.1.62,2.25.91,3.42s.56,2.36.81,3.56.49,2.39.7,3.58.41,2.35.58,3.49.33,2.23.47,3.27.25,2,.35,2.94c.2,1.82.32,3.34.41,4.41s.1,1.67.1,1.67Z"/><path class="cls-11" d="M209.94,119.68c-.72-4.06-1.61-7.6-3.37-6.5C205,114.14,207.12,116.5,209.94,119.68Z"/><path class="cls-11" d="M211.76,124.28c-3.1-2.71-6-4.92-6.69-3C204.47,123,207.58,123.56,211.76,124.28Z"/><path class="cls-11" d="M211.55,124.05c.85-4,1.85-7.55,3.57-6.39C216.63,118.67,214.47,121,211.55,124.05Z"/><path class="cls-11" d="M214.05,132.77c2.69-4.39,4.81-8.43,2.25-8.86C214.07,123.53,214.06,127.47,214.05,132.77Z"/><path class="cls-11" d="M214,133c-3.29-4-6.44-7.27-7.67-5C205.28,130,209,131.31,214,133Z"/><path class="cls-11" d="M215.24,138.33c5.78-3.59,10.67-7.12,7.91-9.14C220.73,127.42,218.39,132.07,215.24,138.33Z"/><path class="cls-11" d="M215.34,140.06c-4.35-5.23-8.51-9.6-10.13-6.59C203.78,136.11,208.71,137.79,215.34,140.06Z"/><path class="cls-11" d="M216.54,146.5c-7.38-3.56-14.13-6.26-14.4-2.15C201.9,148,208.13,147.34,216.54,146.5Z"/><path class="cls-11" d="M216.3,144.69c5.12-6.75,10-12.41,12.24-8.75C230.46,139.14,224.43,141.5,216.3,144.69Z"/><path class="cls-9" d="M222.42,164.46c-3.58-18.14-12.69-38.19-22.69-48.2-7.77-7.78-16.24-8.38-21-1.08-4.92,7.61-1.18,15.11,3.94,19.14,4.85,3.81,12.64,8.42,20.9,14.61,6.65,5,12.67,10.25,16.06,17.76,1.67,7.08,2.75-2.23,2.75-2.23"/><path class="cls-10" d="M222.42,164.46a121.77,121.77,0,0,0-7.55-24.05c-2.19,1.32-6.53-.1-12.23-5.22,3.58,7.24-9.93,4.7-20.51-1.36.19.17.39.34.58.49,4.85,3.81,12.64,8.42,20.9,14.61,6.65,5,12.67,10.25,16.06,17.76C221.34,173.77,222.42,164.46,222.42,164.46Z"/><path class="cls-6" d="M193.85,126.49a75.09,75.09,0,0,1,8.4,7.24,90.78,90.78,0,0,1,7.4,8.27,72.52,72.52,0,0,1,6.22,9.21,58,58,0,0,1,4.58,10.09c-.86-1.64-1.53-3.36-2.48-4.93-.45-.81-.86-1.63-1.32-2.42l-1.44-2.35a102.39,102.39,0,0,0-6.35-9c-2.26-2.89-4.67-5.66-7.16-8.36-1.26-1.34-2.53-2.67-3.85-3.95S195.21,127.74,193.85,126.49Z"/><path class="cls-11" d="M164.6,125.44c-5.39-4.16-10.4-7.51-11.33-4.21C152.46,124.11,157.63,124.68,164.6,125.44Z"/><path class="cls-11" d="M161.89,165.25c-10.21-4-19.46-6.87-19.4-1.37C142.54,168.7,150.78,167.23,161.89,165.25Z"/><path class="cls-11" d="M160.66,169.48c-5,1.75-9.38,3.6-7.62,5.62C154.58,176.87,157.17,173.73,160.66,169.48Z"/><path class="cls-11" d="M184.52,235.32c-5.3-9.57-10.57-17.72-14-13.45C167.44,225.61,174.71,229.75,184.52,235.32Z"/><path class="cls-11" d="M180.87,237.8c-5-1.88-9.51-3.23-9.45-.55C171.48,239.59,175.48,238.83,180.87,237.8Z"/><path class="cls-11" d="M168.63,123.48c-1.24-3.9-2.58-7.28-4.16-6C163.08,118.66,165.44,120.71,168.63,123.48Z"/><ellipse class="cls-2" cx="131.2" cy="365.3" rx="45.55" ry="4.62"/><path class="cls-12" d="M164.19,168.17c2.29-2.42,6.15-7.44,7.67-9.09s.51-2.81-.55-3-2.84,2-4.91,4.54c-1.77,2.15-4.84,6.34-4.84,6.34Z"/><path class="cls-13" d="M161.54,176.79c2.74-1.53,5.71-4,6.77-5.8,1.87-3.14-.23-5.76-2.11-6.91s-5.44,1.25-6.21,2.59c-2.07,3.59-.77,6.3-1.78,7.69C157.93,175.48,160.43,177.54,161.54,176.79Z"/><path class="cls-13" d="M169.39,165.69c-2.5-2.45-3.78-1.5-5.82,0-1.64,1.19-.59,3.35,1.18,5.25a3.51,3.51,0,0,0,2.75,1.19S171.59,167.85,169.39,165.69Z"/><path class="cls-14" d="M167.56,170a3.55,3.55,0,0,1-1.35,1,2.07,2.07,0,0,1-1.68-.18,5.63,5.63,0,0,1-1.27-1.11,4.19,4.19,0,0,1-.87-1.45,2.82,2.82,0,0,1,1-3.09,3.35,3.35,0,0,1,.72-.45,8.27,8.27,0,0,1,.8-.26,3.65,3.65,0,0,1,1.64-.12,3.94,3.94,0,0,0-1.59.29,3.5,3.5,0,0,0-1.4.74,2.59,2.59,0,0,0-.89,2.79,4.29,4.29,0,0,0,.81,1.34,5.25,5.25,0,0,0,1.18,1.08,1.8,1.8,0,0,0,1.48.25A4.07,4.07,0,0,0,167.56,170Z"/><path class="cls-12" d="M161.51,169.41c-2.35.14-2.8-2-2.34-3.84s1.19-3,2.32-3,3.81,3.73,2.91,4.79-1.89.4-2.4-.61c.5,2.14-.49,2.67-.49,2.67"/><path class="cls-14" d="M168.35,169.55a.87.87,0,0,1-.52.54.64.64,0,0,1-.45,0,.32.32,0,0,1-.15-.39c.2.22.29.16.48.09S168.09,169.61,168.35,169.55Z"/><path class="cls-14" d="M160.88,169.47a1.5,1.5,0,0,0,.91-.72,2.18,2.18,0,0,0,.27-1.12,6,6,0,0,0-.56-2.33,4.11,4.11,0,0,1,.79,2.33,2.17,2.17,0,0,1-.36,1.21A1.35,1.35,0,0,1,160.88,169.47Z"/><path class="cls-14" d="M164.54,166.82a1.08,1.08,0,0,1-.3.75,1.06,1.06,0,0,1-.76.34,1.43,1.43,0,0,1-.79-.26,2.2,2.2,0,0,1-.54-.6,4.3,4.3,0,0,0,.63.45,1.34,1.34,0,0,0,.69.18A1.18,1.18,0,0,0,164.54,166.82Z"/><path class="cls-15" d="M139,343.06c-2.32.48-3.75,4.47-1.55,7.69s1.61,13.35,1.61,13.35h2.09v-8.28c0-1.37,1.25-1.73,2.74-.3s4.53,9.77,9.9,9.77,8.52-.35,8.52-2.14-3.41-3.17-4.89-4.29a48.91,48.91,0,0,1-8-8C144.8,345.68,141,343,139,343.06Z"/><path class="cls-15" d="M102.89,353.12A58.31,58.31,0,0,0,99.61,364c-.48,3.3,3.91,4.9,5,4.9s5-2.05,4.75-4.7c-.22-2.46-3.54-11-3.54-11Z"/><path class="cls-16" d="M110.23,271.85c-1.24,9-2.35,15.51-2.18,23.11.12,5.2,1,16,.26,27.27s-1.81,35.93-1.81,35.93.16,5.13-1.81,5.13-2.07-5.13-2.07-5.13S99,323,97.84,314.48s-.7-16.53-.64-20.42a194.57,194.57,0,0,0-1.39-23.37Z"/><path class="cls-16" d="M120.5,272.61l16-3.2s.74,18,1.15,28.64,7.22,46.54,11.73,52.78c2.63,3.94,2,4.68-2.79,2.71s-7.71-5.5-7.63-9.85-3.28-11.57-4.84-15.59-8.84-22.21-9.85-30.78C122.39,281.39,120.5,272.61,120.5,272.61Z"/><path class="cls-17" d="M93.39,176.81l40.3,6.89a227,227,0,0,1-2.43-34.36c0-20.05.8-32.95.8-32.95l-37-5s-2.39,4-3.91,16.29C87.65,155.62,93.39,176.81,93.39,176.81Z"/><path class="cls-18" d="M122.47,155.22c4.23,0,6.54,1.32,12.64,12.19,5.1,9.09,6.95,11.62,8.89,15.5.66,1.31,1.74,3,3.47,1.53.82-.69,9.46-11.56,9.46-11.56l5.24,5.24s-13,16.81-15.32,19.34-3.56,2.37-5.06,1.14c-4-3.29-12.65-18.29-12.65-18.29S122.09,161,122.47,155.22Z"/><path class="cls-19" d="M122.88,155.12c3.1,8.37,5,12.33,7.44,18.41,1.73,4.36,2.27,6.75-1.11,10.83-2,2.54-1.27,10.34-1.27,12.6s9.16,57.79,12.55,73.85c-9.17,4.23-36.09,6.35-50.18,0-1.41-19.3,1.41-43.27,4.93-55.25s3.85-27.58,2.4-37.35c-1.91-12.84-4.87-18-4.87-18S103.29,153.8,122.88,155.12Z"/><path class="cls-16" d="M92,214.33c.4.28,7.74-.07,7.74-.07l5.18,2.35,3.72,3.38-.25,1-3.82-2.36-2.89-1.25,4.49,3.46,6,4.22-.66,1.05-7.58-4.16,6.61,5.29-.48.39-7-4,4.24,4.42-.93.34-4.6-3.51,2.42,2.26-.77.14-5.72-4.91L91,215.74Z"/><path class="cls-18" d="M95.73,158.93c-2.88.67-5.91,3.6-8.38,8.85-1.06,2.24-9.77,24.48-11.44,30.55s1.74,9.17,5.08,12.2,12.12,8.15,12.12,8.15l2.06-5.07s-7.37-6.31-9.35-9-1.11-4.41,1.49-8c3.26-4.49,7-9.24,11.31-14.86S98.33,163.2,95.73,158.93Z"/><path class="cls-20" d="M111.34,161.66a18.4,18.4,0,0,1-2.43-2.31l-.2-18.1,8.63.05,1.46,18.95C116.71,162.12,113.8,163.55,111.34,161.66Z"/><path class="cls-21" d="M117.34,141.3l1,13.23a16.73,16.73,0,0,1-9.51-.23l-.14-13.05Z"/><path class="cls-22" d="M96.92,112.9V135A17.13,17.13,0,0,0,114,152.14h0A17.13,17.13,0,0,0,131.16,135V112.9l-22.31-4.08Z"/><path class="cls-23" d="M129.84,132.55c0,.31-.94.57-2.1.57s-2.09-.26-2.09-.57.94-.58,2.09-.58S129.84,132.23,129.84,132.55Z"/><path class="cls-24" d="M120.25,123.14c-.54,1.52-2.35,7,2,8.32s4.48-5.8,4.48-5.8S122.22,123.77,120.25,123.14Z"/><path class="cls-25" d="M121.34,123c4.78.86,7.7,3.92,3.37,2.85S118.85,122.54,121.34,123Z"/><path class="cls-26" d="M123.72,131.25c-.75-2.77-3.71-2.38-4.06-.22"/><path class="cls-27" d="M111.71,123.14c.54,1.52,2.36,7-2,8.32s-4.49-5.8-4.49-5.8S109.75,123.77,111.71,123.14Z"/><path class="cls-25" d="M110.62,123c-4.77.86-7.7,3.92-3.36,2.85S113.11,122.54,110.62,123Z"/><path class="cls-26" d="M108.24,131.25c.75-2.77,3.71-2.38,4.07-.22"/><path class="cls-23" d="M106.54,132.55c0,.31-.94.57-2.09.57s-2.1-.26-2.1-.57.94-.58,2.1-.58S106.54,132.23,106.54,132.55Z"/><path class="cls-28" d="M115,133.78a5.34,5.34,0,0,1,1.88-.62,2.55,2.55,0,0,1,2,.48,1.1,1.1,0,0,1,.36,1,1.82,1.82,0,0,1-.18.51c-.11.14-.21.28-.32.41a5,5,0,0,1-1.68,1.06,8,8,0,0,0,1.47-1.24c.41-.46.57-1.15.11-1.52a2.45,2.45,0,0,0-1.72-.47A8,8,0,0,0,115,133.78Z"/><path class="cls-28" d="M112.5,141a2.12,2.12,0,0,0,.9,1.61,3,3,0,0,0,1.73.65,5.85,5.85,0,0,0,1.9-.18,16.33,16.33,0,0,0,1.88-.59c-.27.18-.57.34-.86.51s-.61.28-.93.39a5.8,5.8,0,0,1-2,.28,3.18,3.18,0,0,1-1.9-.82A2,2,0,0,1,112.5,141Z"/><path class="cls-25" d="M127.52,109.91c.9,5,1.86,11,.56,13.2-7.33-1.44-15.91-1.48-17.21-2.07s-1.12-5.26-2.07-10c-.64,7.49-3.85,12.22-6.09,13.35-3.88,2.4-5.09,9-6.71,12.1-3.1-15.09,2.94-30.08,8.83-32.44s17.22-2.13,22.3,5.78"/><path class="cls-25" d="M99.55,170.76s-2.7-18.86-2.23-32.54a104.92,104.92,0,0,1,3.87-24.62s1.78-1.28,13.89-2.23,14.1,6.59,15.18,12.2c.58,3,.9,9,.9,9a12.31,12.31,0,0,0,1.7-4.48c.77-3.29.32-7.81-.48-12.75s-5.57-10.36-13.22-13.23-16.71-1.38-20,3.47h0a7.26,7.26,0,0,0-6.71,4.5h0c-4.25,10.36-4,21.36-3.86,34.1s.9,19.71,3.5,22.16Z"/><line class="cls-29" x1="153.68" y1="34.78" x2="141.21" y2="22.31"/><line class="cls-29" x1="114.51" y1="18.16" x2="107.98" y2="11.63"/><line class="cls-29" x1="85.12" y1="67.05" x2="81.19" y2="63.12"/><line class="cls-29" x1="54.71" y1="42.36" x2="40.4" y2="28.05"/><line class="cls-29" x1="58.29" y1="123.94" x2="53.63" y2="119.29"/><line class="cls-29" x1="16.42" y1="113.21" x2="13.74" y2="110.53"/><line class="cls-29" x1="133.43" y1="87.45" x2="127.16" y2="81.19"/><line class="cls-29" x1="245.06" y1="24.83" x2="237.19" y2="16.96"/><line class="cls-29" x1="272.97" y1="28.05" x2="265.1" y2="20.18"/><line class="cls-29" x1="366.36" y1="16.96" x2="359.38" y2="9.98"/><line class="cls-29" x1="428.62" y1="83.51" x2="420.92" y2="75.82"/><line class="cls-29" x1="423.96" y1="9.45" x2="415.02" y2="0.5"/><line class="cls-29" x1="444" y1="90.31" x2="435.95" y2="82.26"/><line class="cls-29" x1="406.79" y1="50.24" x2="401.78" y2="45.23"/><line class="cls-29" x1="426.83" y1="209.46" x2="423.07" y2="205.7"/><line class="cls-29" x1="455.09" y1="200.51" x2="448.3" y2="193.72"/><line class="cls-29" x1="445.79" y1="290.68" x2="441.32" y2="286.21"/><line class="cls-29" x1="430.76" y1="324.32" x2="418.24" y2="311.79"/><line class="cls-29" x1="418.96" y1="352.22" x2="411.26" y2="344.53"/><line class="cls-29" x1="428.26" y1="383.71" x2="422.18" y2="377.63"/><line class="cls-29" x1="183.88" y1="343.28" x2="177.44" y2="336.84"/><line class="cls-29" x1="157.04" y1="241.3" x2="151.49" y2="235.76"/><line class="cls-29" x1="80.11" y1="236.29" x2="73.49" y2="229.68"/><line class="cls-29" x1="72.6" y1="313.94" x2="61.51" y2="302.85"/><line class="cls-29" x1="14.28" y1="247.03" x2="6.94" y2="239.69"/><line class="cls-29" x1="56.85" y1="204.09" x2="51.67" y2="198.9"/><line class="cls-29" x1="13.56" y1="163.3" x2="0.5" y2="150.24"/><rect class="cls-30" x="212.73" y="132.31" width="4.11" height="19.47" transform="translate(429.56 284.09) rotate(-180)"/><rect class="cls-30" x="212.73" y="154.3" width="4.11" height="19.47" transform="translate(429.56 328.06) rotate(-180)"/><rect class="cls-31" x="214.42" y="95.63" width="152.09" height="269.94" rx="17.5"/><rect class="cls-32" x="220.86" y="101.49" width="139.21" height="257.43" rx="12.62"/><rect class="cls-33" x="223.04" y="103.12" width="134.85" height="254.17" rx="12.62"/><path class="cls-31" d="M308.73,114.85H273.44c-3,0-5.66-1.24-6.81-3.15l-6.57-10.92h62.05l-6.57,10.92C314.4,113.61,311.71,114.85,308.73,114.85Z"/><path class="cls-32" d="M304.88,107H277.34a1.07,1.07,0,1,0,0,2.14h27.54a1.07,1.07,0,0,0,0-2.14Z"/><g class="cls-34"><path class="cls-35" d="M357.89,120.6,223,255.45v89.22a12.48,12.48,0,0,0,1.26,5.46L357.89,216.54Z"/><path class="cls-35" d="M345.27,103.12H335.15L223,215.23v18.31L351.69,104.89A12.49,12.49,0,0,0,345.27,103.12Z"/><polygon class="cls-35" points="357.89 236.69 237.29 357.29 255.6 357.29 357.89 255 357.89 236.69"/></g><path class="cls-36" d="M223,315.73v28.94a12.62,12.62,0,0,0,12.63,12.62h109.6a12.62,12.62,0,0,0,12.62-12.62V315.73Z"/><circle class="cls-37" cx="291.36" cy="337.02" r="13.09"/><circle class="cls-38" cx="291.36" cy="337.02" r="15.71" transform="translate(-103.25 543.77) rotate(-76.81)"/><rect class="cls-39" x="239.42" y="124.2" width="105.16" height="180.87" rx="2.65" transform="translate(61.88 494.6) rotate(-86.9)"/><path class="cls-40" d="M382.5,166.88a2.65,2.65,0,0,1,2.51,2.8l-5.4,99.7a2.65,2.65,0,0,1-2.8,2.51l-82.13-4.45-87-110Z"/><path class="cls-41" d="M383,166.91l-90.21,74.61a3.38,3.38,0,0,1-4.51-.25l-81.62-83.91Z"/><path class="cls-42" d="M383,166.91l-90.09,72.41a3.38,3.38,0,0,1-4.51-.25l-81.74-81.71Z"/><path class="cls-43" d="M201.18,260c.31.54,12.23-5.73,26.62-14s25.81-15.44,25.5-16-12.23,5.74-26.63,14S200.86,259.42,201.18,260Z"/><path class="cls-44" d="M375.9,269.43c-.37.51-11.54-7-24.95-16.82S327,234.47,327.32,234s11.54,7,25,16.82S376.27,268.93,375.9,269.43Z"/><ellipse class="cls-45" cx="294.87" cy="165.81" rx="1.19" ry="72.75" transform="translate(113.35 451.28) rotate(-86.9)"/><path class="cls-45" d="M316.44,218.24S294.66,236,292.87,237.16s-3.14,1.19-5.12-.89-55.28-55.1-55.28-55.1,51.94,48.51,54.34,49.75,5.38,3,7.55,1.52S316.44,218.24,316.44,218.24Z"/><polygon class="cls-42" points="205.52 161.66 249.84 226.66 200.62 257.36 205.52 161.66"/><polygon class="cls-42" points="254.62 233.64 281.93 264.93 205.23 260.77 254.62 233.64"/><polygon class="cls-39" points="381.84 178.48 377.06 266.66 363.3 255.98 381.84 178.48"/><polygon class="cls-39" points="369.69 269.1 361.5 263.12 316.21 265.78 369.69 269.1"/><circle class="cls-46" cx="286.07" cy="153.55" r="14.32"/><path class="cls-47" d="M277.78,137.46a18.15,18.15,0,0,0-8.24,8.71"/><path class="cls-47" d="M304.08,151.7a18.12,18.12,0,0,0-9.47-14.12"/><text class="cls-48" transform="matrix(-1, 0, 0, 1, 289.24, 159.34)">1</text><path class="cls-36" d="M249,278.07h82.33a7.4,7.4,0,0,1,7.41,7.41h0a7.41,7.41,0,0,1-7.41,7.41H249a7.41,7.41,0,0,1-7.41-7.41h0A7.41,7.41,0,0,1,249,278.07Z"/><text class="cls-49" transform="matrix(-1, 0, 0, 1, 328.3, 289.69)">N<tspan class="cls-50" x="7.06" y="0">E</tspan><tspan x="12.44" y="0">W MESS</tspan><tspan class="cls-51" x="48.3" y="0">A</tspan><tspan class="cls-52" x="54.71" y="0">GE</tspan></text><circle class="cls-42" cx="169.42" cy="67.52" r="8.09"/><path class="cls-42" d="M104,49.22a1.28,1.28,0,1,0,1.27-1.28A1.27,1.27,0,0,0,104,49.22Z"/><circle class="cls-42" cx="48.13" cy="147.09" r="2.38"/><path class="cls-42" d="M26.69,80.13A5.3,5.3,0,1,0,32,74.84,5.29,5.29,0,0,0,26.69,80.13Z"/><path class="cls-42" d="M33.57,286.3a2.91,2.91,0,1,0,2.91-2.91A2.91,2.91,0,0,0,33.57,286.3Z"/><circle class="cls-42" cx="53.95" cy="347.18" r="5.03"/><circle class="cls-42" cx="331.58" cy="12.38" r="2.65"/><circle class="cls-42" cx="440.62" cy="38.32" r="4.23"/><path class="cls-42" d="M387.16,9.2A3.18,3.18,0,1,0,390.34,6,3.18,3.18,0,0,0,387.16,9.2Z"/><circle class="cls-42" cx="449.09" cy="209.29" r="2.12"/><circle class="cls-42" cx="196.34" cy="7.88" r="3.44"/><path class="cls-42" d="M430.56,343.74a5.83,5.83,0,1,0,5.83-5.83A5.83,5.83,0,0,0,430.56,343.74Z"/><circle class="cls-42" cx="436.39" cy="307.21" r="2.65"/><circle class="cls-42" cx="13.46" cy="320.97" r="2.12"/><circle class="cls-42" cx="25.63" cy="205.05" r="2.12"/><circle class="cls-42" cx="62.95" cy="19.52" r="1.32"/><circle class="cls-42" cx="218.52" cy="68.21" r="17.25"/><path class="cls-37" d="M213.34,64.26c-.34,1.37-1.37,6.78-4.7,7.45L217,73.77l8.48,2.08c-2.44-1.66-1.13-7.49-.81-8.8a5.84,5.84,0,0,0-11.35-2.79Z"/><path class="cls-37" d="M219.42,59.81a1,1,0,0,0,.73,1.22,1,1,0,0,0,1.22-.74,1,1,0,0,0-.74-1.21A1,1,0,0,0,219.42,59.81Z"/><path class="cls-37" d="M214.8,74.23a2.13,2.13,0,0,0,4.14,1Z"/></g></g></g></svg>